<?xml version="1.0" encoding="UTF-8" standalone="no"?>
<!-- Created with Inkscape (http://www.inkscape.org/) -->

<svg
   xmlns:dc="http://purl.org/dc/elements/1.1/"
   xmlns:cc="http://creativecommons.org/ns#"
   xmlns:rdf="http://www.w3.org/1999/02/22-rdf-syntax-ns#"
   xmlns:svg="http://www.w3.org/2000/svg"
   xmlns="http://www.w3.org/2000/svg"
   xmlns:sodipodi="http://sodipodi.sourceforge.net/DTD/sodipodi-0.dtd"
   xmlns:inkscape="http://www.inkscape.org/namespaces/inkscape"
   width="640"
   height="480"
   viewBox="0 0 169.33333 127"
   version="1.1"
   id="svg8"
   inkscape:version="0.92.2 5c3e80d, 2017-08-06"
   sodipodi:docname="logo.svg"
   inkscape:export-filename="/home/petervaro/documents/personal/remote/pcd/img/logo.png"
   inkscape:export-xdpi="96"
   inkscape:export-ydpi="96">
  <defs
     id="defs2" />
  <sodipodi:namedview
     id="base"
     pagecolor="#ffffff"
     bordercolor="#666666"
     borderopacity="1.0"
     inkscape:pageopacity="0.0"
     inkscape:pageshadow="2"
     inkscape:zoom="1.4"
     inkscape:cx="181.23427"
     inkscape:cy="130.70722"
     inkscape:document-units="px"
     inkscape:current-layer="layer1"
     showgrid="false"
     showguides="true"
     inkscape:guide-bbox="true"
     inkscape:window-width="2560"
     inkscape:window-height="1437"
     inkscape:window-x="0"
     inkscape:window-y="0"
     inkscape:window-maximized="1"
     units="px"
     inkscape:showpageshadow="false" />
  <metadata
     id="metadata5">
    <rdf:RDF>
      <cc:Work
         rdf:about="">
        <dc:format>image/svg+xml</dc:format>
        <dc:type
           rdf:resource="http://purl.org/dc/dcmitype/StillImage" />
        <dc:title></dc:title>
      </cc:Work>
    </rdf:RDF>
  </metadata>
  <g
     inkscape:label="Layer 1"
     inkscape:groupmode="layer"
     id="layer1"
     transform="translate(0,-169.99999)">
    <g
       id="g1142"
       transform="matrix(1.2389629,0,0,1.2389629,-30.179597,159.6526)"
       style="stroke-width:0.8071267">
      <g
         style="stroke-width:1.16237175"
         transform="matrix(0.6221171,-0.30843574,0.30843574,0.6221171,205.73953,-64.300106)"
         id="g1130">
        <path
           style="fill:#e85641;fill-opacity:1;fill-rule:evenodd;stroke:none;stroke-width:0.3075442px;stroke-linecap:butt;stroke-linejoin:miter;stroke-opacity:1"
           d="m -178.93694,123.18992 4.14268,32.87415 -14.16529,-9.75534 -14.16529,9.75534 4.14268,-32.87415 z"
           id="path1111-9"
           inkscape:connector-curvature="0"
           sodipodi:nodetypes="cccccc" />
        <circle
           style="opacity:1;fill:#f2be45;fill-opacity:1;fill-rule:evenodd;stroke:none;stroke-width:2.90592957;stroke-linecap:square;stroke-linejoin:miter;stroke-miterlimit:4;stroke-dasharray:none;stroke-opacity:1"
           id="path1109"
           cx="-188.95955"
           cy="110.17859"
           r="16.437075" />
      </g>
      <g
         transform="translate(201.08333,-54.050595)"
         style="stroke-width:2.01781678;stroke-miterlimit:4;stroke-dasharray:none"
         id="g999" />
      <g
         style="stroke-width:2.01781678;stroke-miterlimit:4;stroke-dasharray:none"
         transform="rotate(180,3.1887467,100.12379)"
         id="g980" />
      <path
         id="path958-3"
         style="color:#000000;font-style:normal;font-variant:normal;font-weight:normal;font-stretch:normal;font-size:medium;line-height:normal;font-family:sans-serif;font-variant-ligatures:normal;font-variant-position:normal;font-variant-caps:normal;font-variant-numeric:normal;font-variant-alternates:normal;font-feature-settings:normal;text-indent:0;text-align:start;text-decoration:none;text-decoration-line:none;text-decoration-style:solid;text-decoration-color:#000000;letter-spacing:normal;word-spacing:normal;text-transform:none;writing-mode:lr-tb;direction:ltr;text-orientation:mixed;dominant-baseline:auto;baseline-shift:baseline;text-anchor:start;white-space:normal;shape-padding:0;clip-rule:nonzero;display:inline;overflow:visible;visibility:visible;opacity:1;isolation:auto;mix-blend-mode:normal;color-interpolation:sRGB;color-interpolation-filters:linearRGB;solid-color:#000000;solid-opacity:1;vector-effect:none;fill:#000000;fill-opacity:1;fill-rule:evenodd;stroke:none;stroke-width:2.01781678;stroke-linecap:square;stroke-linejoin:miter;stroke-miterlimit:4;stroke-dasharray:none;stroke-dashoffset:0;stroke-opacity:1;color-rendering:auto;image-rendering:auto;shape-rendering:auto;text-rendering:auto;enable-background:accumulate"
         d="m 90.984375,44.6875 c -6.506104,-2e-6 -11.806642,5.300537 -11.806641,11.806641 -2e-6,6.506104 5.300537,11.806643 11.806641,11.80664 4.198418,-4e-6 8.084594,-2.232382 10.199215,-5.859375 l 0.63086,-1.080078 -2.160153,-1.259766 -0.628906,1.080079 c -1.668651,2.862061 -4.728043,4.619137 -8.041016,4.61914 -5.155003,2e-6 -9.306643,-4.151637 -9.306641,-9.30664 -10e-7,-5.155003 4.151638,-9.306643 9.306641,-9.306641 3.312986,4e-6 6.37237,1.757061 8.041016,4.619141 l 0.628906,1.080078 2.160153,-1.259766 -0.63086,-1.080078 C 99.068976,46.919859 95.18281,44.687505 90.984375,44.6875 Z M 122.72525,31.337215 v 17.907952 c -2.16329,-2.770519 -5.53076,-4.55838 -9.30692,-4.55838 -6.50612,0 -11.80652,5.300933 -11.80652,11.807031 0,6.506102 5.3004,11.808582 11.80652,11.808582 3.77616,0 7.14363,-1.78834 9.30692,-4.559411 v 3.809069 h 2.50011 V 56.493818 31.337215 Z m -9.30692,15.849678 c 5.15499,0 9.30692,4.151927 9.30692,9.306925 0,5.155002 -4.15193,9.308476 -9.30692,9.308476 -5.15502,0 -9.30641,-4.153474 -9.30641,-9.308476 0,-5.154998 4.15139,-9.306925 9.30641,-9.306925 z M 66.780344,44.687822 c -3.776043,-3e-6 -7.143114,1.787504 -9.306409,4.55786 v -3.808036 h -2.500106 v 11.056691 25.158152 h 2.500106 v -17.9095 c 2.163295,2.770357 5.530374,4.557861 9.306409,4.557861 6.506089,0 11.807021,-5.300414 11.807032,-11.806513 0,-6.506101 -5.300943,-11.806512 -11.807032,-11.806515 z m 0,2.500106 c 5.154989,0 9.306925,4.151408 9.306925,9.306409 -1e-5,5.154999 -4.151936,9.306406 -9.306925,9.306406 -5.155001,0 -9.306399,-4.151407 -9.306409,-9.306406 0,-5.155001 4.151397,-9.306409 9.306409,-9.306409 z"
         inkscape:connector-curvature="0" />
    </g>
  </g>
</svg>
